<svg width="60" height="60" fill="none" xmlns="http://www.w3.org/2000/svg"><g clip-path="url(#clip0)" fill="#042CFC"><path d="M41.878 40.5a1 1 0 0 0-.872-.51H18.994a1 1 0 0 0-.854 1.521l11.006 18.01a1 1 0 0 0 1.708 0l11.006-18.01c.189-.308.195-.695.018-1.01zM30 57.08l-9.222-15.09h18.444L30 57.08zM41.86 18.456L30.854.446c-.364-.595-1.345-.595-1.708 0L18.14 18.456a1.001 1.001 0 0 0 .854 1.522h22.012a1 1 0 0 0 .854-1.522zm-21.082-.479L30 2.887l9.222 15.09H20.778zM30 24.981a5.009 5.009 0 0 0-5.003 5.003A5.009 5.009 0 0 0 30 34.986a5.009 5.009 0 0 0 5.003-5.002A5.008 5.008 0 0 0 30 24.98zm0 8.004a3.005 3.005 0 0 1-3.002-3.001A3.005 3.005 0 0 1 30 26.982a3.005 3.005 0 0 1 3.002 3.002A3.005 3.005 0 0 1 30 32.985z"/></g><defs><clipPath id="clip0"><path fill="#fff" d="M0 0h60v60H0z"/></clipPath></defs></svg>